<svg width="32" height="32" viewBox="0 0 32 32" fill="none" xmlns="http://www.w3.org/2000/svg">
<path d="M17.3333 9.33332H14.6667V14.6667H9.33333V17.3333H14.6667V22.6667H17.3333V17.3333H22.6667V14.6667H17.3333V9.33332ZM16 2.66666C8.64 2.66666 2.66666 8.63999 2.66666 16C2.66666 23.36 8.64 29.3333 16 29.3333C23.36 29.3333 29.3333 23.36 29.3333 16C29.3333 8.63999 23.36 2.66666 16 2.66666ZM16 26.6667C10.12 26.6667 5.33333 21.88 5.33333 16C5.33333 10.12 10.12 5.33332 16 5.33332C21.88 5.33332 26.6667 10.12 26.6667 16C26.6667 21.88 21.88 26.6667 16 26.6667Z" fill="#A96280"/>
</svg>
