<svg width="90" height="90" viewBox="0 0 90 90" fill="none" xmlns="http://www.w3.org/2000/svg">
<rect x="1" y="1" width="88" height="88" rx="9" fill="white" stroke="#A96280" stroke-width="2"/>
<path d="M34.952 23.9H31.652V27.325C31.652 30.65 29.627 33.525 24.927 34.5L26.477 37.1C29.752 36.325 32.052 34.625 33.302 32.3C34.527 34.625 36.827 36.325 40.127 37.1L41.677 34.5C36.977 33.525 34.952 30.65 34.952 27.325V23.9ZM49.475 24.325V26.95H60.775V36.725H64.025V24.325H49.475ZM31.377 51.825H35.277V59.3H31.377V51.825ZM38.577 59.3V51.825H40.777V49.2H25.852V51.825H28.077V59.3H25.502V61.925H41.127V59.3H38.577ZM58.725 53.7H64.2V51H58.425V47.575H55.125V51H49.35V53.7H54.775V53.925C54.775 56.675 53.025 59.025 48.55 59.8L50 62.375C53.425 61.675 55.65 60.05 56.75 57.725C57.85 60.05 60.075 61.675 63.5 62.375L64.975 59.8C60.5 59.025 58.725 56.675 58.725 53.925V53.7Z" fill="#A96280"/>
</svg>
