<svg width="32" height="32" viewBox="0 0 32 32" fill="none" xmlns="http://www.w3.org/2000/svg">
<path d="M12 18.3333C8.88 18.3333 2.66667 19.8933 2.66667 23V25.3333H21.3333V23C21.3333 19.8933 15.12 18.3333 12 18.3333ZM5.78667 22.6667C6.90667 21.8933 9.61333 21 12 21C14.3867 21 17.0933 21.8933 18.2133 22.6667H5.78667ZM12 16C14.5733 16 16.6667 13.9067 16.6667 11.3333C16.6667 8.75999 14.5733 6.66666 12 6.66666C9.42667 6.66666 7.33333 8.75999 7.33333 11.3333C7.33333 13.9067 9.42667 16 12 16ZM12 9.33332C13.1067 9.33332 14 10.2267 14 11.3333C14 12.44 13.1067 13.3333 12 13.3333C10.8933 13.3333 10 12.44 10 11.3333C10 10.2267 10.8933 9.33332 12 9.33332ZM21.3867 18.4133C22.9333 19.5333 24 21.0267 24 23V25.3333H29.3333V23C29.3333 20.3067 24.6667 18.7733 21.3867 18.4133V18.4133ZM20 16C22.5733 16 24.6667 13.9067 24.6667 11.3333C24.6667 8.75999 22.5733 6.66666 20 6.66666C19.28 6.66666 18.6133 6.83999 18 7.13332C18.84 8.31999 19.3333 9.77332 19.3333 11.3333C19.3333 12.8933 18.84 14.3467 18 15.5333C18.6133 15.8267 19.28 16 20 16Z" fill="#A96280"/>
</svg>
