<svg width="32" height="32" viewBox="0 0 32 32" fill="none" xmlns="http://www.w3.org/2000/svg">
<path d="M10.4431 4.984H8.59509V6.902C8.59509 8.764 7.46109 10.374 4.82909 10.92L5.69709 12.376C7.53109 11.942 8.81909 10.99 9.51909 9.688C10.2051 10.99 11.4931 11.942 13.3411 12.376L14.2091 10.92C11.5771 10.374 10.4431 8.764 10.4431 6.902V4.984ZM18.436 5.222V6.692H24.764V12.166H26.584V5.222H18.436ZM8.44109 18.622H10.6251V22.808H8.44109V18.622ZM12.4731 22.808V18.622H13.7051V17.152H5.34709V18.622H6.59309V22.808H5.15109V24.278H13.9011V22.808H12.4731ZM23.616 19.672H26.682V18.16H23.448V16.242H21.6V18.16H18.366V19.672H21.404V19.798C21.404 21.338 20.424 22.654 17.918 23.088L18.73 24.53C20.648 24.138 21.894 23.228 22.51 21.926C23.126 23.228 24.372 24.138 26.29 24.53L27.116 23.088C24.61 22.654 23.616 21.338 23.616 19.798V19.672Z" fill="white"/>
</svg>
