<svg width="32" height="32" viewBox="0 0 32 32" fill="none" xmlns="http://www.w3.org/2000/svg">
<path d="M27.3333 4L27.12 4.04L20 6.8L12 4L4.48 6.53333C4.2 6.62667 4 6.86667 4 7.17333V27.3333C4 27.7067 4.29333 28 4.66667 28L4.88 27.96L12 25.2L20 28L27.52 25.4667C27.8 25.3733 28 25.1333 28 24.8267V4.66667C28 4.29333 27.7067 4 27.3333 4ZM13.3333 7.29333L18.6667 9.16V24.7067L13.3333 22.84V7.29333ZM6.66667 8.61333L10.6667 7.26667V22.8667L6.66667 24.4133V8.61333ZM25.3333 23.3867L21.3333 24.7333V9.14667L25.3333 7.6V23.3867Z" fill="#A96280"/>
</svg>
