<svg width="231" height="231" viewBox="0 0 231 231" fill="none" xmlns="http://www.w3.org/2000/svg">
<path fill-rule="evenodd" clip-rule="evenodd" d="M165.094 145.283H154.66L150.962 141.717C163.906 126.66 171.698 107.113 171.698 85.8491C171.698 38.434 133.264 0 85.8491 0C38.434 0 0 38.434 0 85.8491C0 133.264 38.434 171.698 85.8491 171.698C107.113 171.698 126.66 163.906 141.717 150.962L145.283 154.66V165.094L211.321 231L231 211.321L165.094 145.283ZM85.8487 145.283C52.9619 145.283 26.4147 118.736 26.4147 85.849C26.4147 52.9622 52.9619 26.415 85.8487 26.415C118.735 26.415 145.283 52.9622 145.283 85.849C145.283 118.736 118.735 145.283 85.8487 145.283Z" fill="#A96280"/>
</svg>
