<svg width="249" height="249" viewBox="0 0 249 249" fill="none" xmlns="http://www.w3.org/2000/svg">
<path fill-rule="evenodd" clip-rule="evenodd" d="M177.959 156.604H166.712L162.726 152.76C176.678 136.53 185.077 115.46 185.077 92.5386C185.077 41.4288 143.648 0 92.5386 0C41.4288 0 0 41.4288 0 92.5386C0 143.648 41.4288 185.077 92.5386 185.077C115.46 185.077 136.53 176.678 152.76 162.726L156.604 166.712V177.959L227.787 249L249 227.787L177.959 156.604ZM92.539 156.604C57.0896 156.604 28.4738 127.988 28.4738 92.539C28.4738 57.0896 57.0896 28.4738 92.539 28.4738C127.988 28.4738 156.604 57.0896 156.604 92.539C156.604 127.988 127.988 156.604 92.539 156.604Z" fill="#A96280"/>
</svg>
