<svg width="32" height="32" viewBox="0 0 32 32" fill="none" xmlns="http://www.w3.org/2000/svg">
<path d="M25.9067 17.3067C25.96 16.88 26 16.4533 26 16C26 15.5467 25.96 15.12 25.9067 14.6933L28.72 12.4933C28.9733 12.2933 29.04 11.9333 28.88 11.64L26.2133 7.02667C26.0933 6.81334 25.8667 6.69334 25.6267 6.69334C25.5467 6.69334 25.4667 6.70667 25.4 6.73334L22.08 8.06667C21.3867 7.53334 20.64 7.09334 19.8267 6.76001L19.32 3.22667C19.28 2.90667 19 2.66667 18.6667 2.66667H13.3333C13 2.66667 12.72 2.90667 12.68 3.22667L12.1733 6.76001C11.36 7.09334 10.6133 7.54667 9.92 8.06667L6.6 6.73334C6.52 6.70667 6.44 6.69334 6.36 6.69334C6.13333 6.69334 5.90667 6.81334 5.78667 7.02667L3.12 11.64C2.94667 11.9333 3.02667 12.2933 3.28 12.4933L6.09333 14.6933C6.04 15.12 6 15.56 6 16C6 16.44 6.04 16.88 6.09333 17.3067L3.28 19.5067C3.02667 19.7067 2.96 20.0667 3.12 20.36L5.78667 24.9733C5.90667 25.1867 6.13333 25.3067 6.37333 25.3067C6.45333 25.3067 6.53333 25.2933 6.6 25.2667L9.92 23.9333C10.6133 24.4667 11.36 24.9067 12.1733 25.24L12.68 28.7733C12.72 29.0933 13 29.3333 13.3333 29.3333H18.6667C19 29.3333 19.28 29.0933 19.32 28.7733L19.8267 25.24C20.64 24.9067 21.3867 24.4533 22.08 23.9333L25.4 25.2667C25.48 25.2933 25.56 25.3067 25.64 25.3067C25.8667 25.3067 26.0933 25.1867 26.2133 24.9733L28.88 20.36C29.04 20.0667 28.9733 19.7067 28.72 19.5067L25.9067 17.3067V17.3067ZM23.2667 15.0267C23.32 15.44 23.3333 15.72 23.3333 16C23.3333 16.28 23.3067 16.5733 23.2667 16.9733L23.08 18.48L24.2667 19.4133L25.7067 20.5333L24.7733 22.1467L23.08 21.4667L21.6933 20.9067L20.4933 21.8133C19.92 22.24 19.3733 22.56 18.8267 22.7867L17.4133 23.36L17.2 24.8667L16.9333 26.6667H15.0667L14.8133 24.8667L14.6 23.36L13.1867 22.7867C12.6133 22.5467 12.08 22.24 11.5467 21.84L10.3333 20.9067L8.92 21.48L7.22667 22.16L6.29333 20.5467L7.73333 19.4267L8.92 18.4933L8.73333 16.9867C8.69333 16.5733 8.66667 16.2667 8.66667 16C8.66667 15.7333 8.69333 15.4267 8.73333 15.0267L8.92 13.52L7.73333 12.5867L6.29333 11.4667L7.22667 9.85334L8.92 10.5333L10.3067 11.0933L11.5067 10.1867C12.08 9.76001 12.6267 9.44001 13.1733 9.21334L14.5867 8.64001L14.8 7.13334L15.0667 5.33334H16.92L17.1733 7.13334L17.3867 8.64001L18.8 9.21334C19.3733 9.45334 19.9067 9.76001 20.44 10.16L21.6533 11.0933L23.0667 10.52L24.76 9.84001L25.6933 11.4533L24.2667 12.5867L23.08 13.52L23.2667 15.0267ZM16 10.6667C13.0533 10.6667 10.6667 13.0533 10.6667 16C10.6667 18.9467 13.0533 21.3333 16 21.3333C18.9467 21.3333 21.3333 18.9467 21.3333 16C21.3333 13.0533 18.9467 10.6667 16 10.6667ZM16 18.6667C14.5333 18.6667 13.3333 17.4667 13.3333 16C13.3333 14.5333 14.5333 13.3333 16 13.3333C17.4667 13.3333 18.6667 14.5333 18.6667 16C18.6667 17.4667 17.4667 18.6667 16 18.6667Z" fill="#A96280"/>
</svg>
